<svg width="38" height="38" viewBox="0 0 38 38" fill="none" xmlns="http://www.w3.org/2000/svg">
<g clip-path="url(#clip0_1_1632)">
<path d="M15.8334 28.025H9.83258C3.81591 28.025 1.97925 26.1884 1.97925 20.1717V10.6717C1.97925 4.65503 3.81591 2.81836 9.83258 2.81836H26.5051C32.5217 2.81836 34.3584 4.65503 34.3584 10.6717C34.3584 11.3209 33.8201 11.8592 33.1709 11.8592C32.5217 11.8592 31.9834 11.3209 31.9834 10.6717C31.9834 6.01669 31.1601 5.19336 26.5051 5.19336H9.83258C5.17758 5.19336 4.35425 6.01669 4.35425 10.6717V20.1717C4.35425 24.8267 5.17758 25.65 9.83258 25.65H15.8334C16.4826 25.65 17.0209 26.1884 17.0209 26.8375C17.0209 27.4867 16.4826 28.025 15.8334 28.025Z" fill="white"/>
<path d="M15.8333 35.1818C15.1841 35.1818 14.6458 34.6434 14.6458 33.9943V26.8218C14.6458 26.1726 15.1841 25.6343 15.8333 25.6343C16.4824 25.6343 17.0208 26.1726 17.0208 26.8218V33.9943C17.0208 34.6593 16.4824 35.1818 15.8333 35.1818Z" fill="white"/>
<path d="M15.8334 21.6917H3.16675C2.51758 21.6917 1.97925 21.1533 1.97925 20.5042C1.97925 19.855 2.51758 19.3167 3.16675 19.3167H15.8334C16.4826 19.3167 17.0209 19.855 17.0209 20.5042C17.0209 21.1533 16.4826 21.6917 15.8334 21.6917Z" fill="white"/>
<path d="M15.8333 35.1816H10.6716C10.0225 35.1816 9.48413 34.6433 9.48413 33.9941C9.48413 33.345 10.0225 32.8066 10.6716 32.8066H15.8333C16.4825 32.8066 17.0208 33.345 17.0208 33.9941C17.0208 34.6433 16.4825 35.1816 15.8333 35.1816Z" fill="white"/>
<path d="M30.1466 35.1817H24.5258C20.1399 35.1817 18.6516 33.6934 18.6516 29.3076V20.2667C18.6516 15.8809 20.1399 14.3926 24.5258 14.3926H30.1466C34.5324 14.3926 36.0208 15.8809 36.0208 20.2667V29.3076C36.0208 33.7092 34.5324 35.1817 30.1466 35.1817ZM24.5258 16.7676C21.4224 16.7676 21.0266 17.1634 21.0266 20.2667V29.3076C21.0266 32.4109 21.4224 32.8067 24.5258 32.8067H30.1466C33.2499 32.8067 33.6458 32.4109 33.6458 29.3076V20.2667C33.6458 17.1634 33.2499 16.7676 30.1466 16.7676H24.5258Z" fill="white"/>
<path d="M27.3917 30.0358C26.98 30.0358 26.5684 29.8775 26.2675 29.5767C26.125 29.4342 26.0142 29.26 25.935 29.07C25.8558 28.8642 25.8083 28.6583 25.8083 28.4525C25.8083 28.0408 25.9825 27.6292 26.2675 27.3442C26.6317 26.98 27.1859 26.8058 27.7084 26.9008C27.8034 26.9325 27.8984 26.9642 27.9934 26.9958C28.0884 27.0433 28.1834 27.0908 28.2625 27.1383C28.3575 27.2017 28.4367 27.265 28.5159 27.3442C28.8009 27.6292 28.975 28.0408 28.975 28.4525C28.975 28.6583 28.9275 28.8642 28.8483 29.07C28.7692 29.26 28.6584 29.4342 28.5159 29.5767C28.4367 29.6558 28.3575 29.7192 28.2625 29.7667C28.1834 29.83 28.0884 29.8775 27.9934 29.925C27.8984 29.9567 27.8034 29.9883 27.7084 30.0042C27.5975 30.0358 27.5025 30.0358 27.3917 30.0358Z" fill="white"/>
</g>
<defs>
<clipPath id="clip0_1_1632">
<rect width="38" height="38" fill="white"/>
</clipPath>
</defs>
</svg>
